<svg xmlns="http://www.w3.org/2000/svg" width="1054" height="331" fill="none"><path fill="#0C2D70" d="M311.92 69.8q1.056 0 1.824.768t.768 1.824v15.456q0 1.056-.768 1.824t-1.824.768h-20.64v43.968q0 1.056-.768 1.824t-1.824.768h-19.776q-1.056 0-1.824-.768t-.768-1.824V90.44h-20.64q-1.056 0-1.824-.768t-.768-1.824V72.392q0-1.056.768-1.824t1.824-.768zm48.443 68.16q-16.128 0-25.632-7.008-9.408-7.008-9.408-21.888V72.392q0-1.056.768-1.824t1.824-.768h20.064q1.056 0 1.824.768t.768 1.824V110.6q0 3.936 2.592 6.048 2.688 2.112 7.2 2.112t7.104-2.112q2.688-2.112 2.688-6.048V72.392q0-1.056.768-1.824t1.824-.768h20.064q1.056 0 1.824.768t.768 1.824v36.672q0 14.88-9.504 21.888-9.408 7.008-25.536 7.008m112.858-20.64q1.056 0 1.824.768t.768 1.824v14.496q0 1.056-.768 1.824t-1.824.768h-56.064q-1.056 0-1.824-.768t-.768-1.824V72.392q0-1.056.768-1.824t1.824-.768h20.736q1.056 0 1.824.768t.768 1.824v44.928zm63.323 0h17.376q1.056 0 1.824.768t.768 1.824v14.496q0 1.056-.768 1.824t-1.824.768h-60.864q-1.056 0-1.824-.768t-.768-1.824v-14.496q0-1.056.768-1.824t1.824-.768h17.568V89.48h-17.568q-1.056 0-1.824-.768t-.768-1.824V72.392q0-1.056.768-1.824t1.824-.768h60.864q1.056 0 1.824.768t.768 1.824v14.496q0 1.056-.768 1.824t-1.824.768h-17.376zM638.17 69.8q1.056 0 1.824.768t.768 1.824v15.456q0 1.056-.768 1.824t-1.824.768h-20.64v43.968q0 1.056-.768 1.824t-1.824.768h-19.776q-1.056 0-1.824-.768t-.768-1.824V90.44h-20.64q-1.056 0-1.824-.768t-.768-1.824V72.392q0-1.056.768-1.824t1.824-.768zm88.091 63.84q.384.576.384 1.248 0 .864-.672 1.536-.576.576-1.44.576h-24.768q-2.208 0-3.456-1.536l-16.704-20.64v19.584q0 1.056-.768 1.824t-1.824.768h-19.776q-1.056 0-1.824-.768t-.768-1.824V72.392q0-1.056.768-1.824t1.824-.768h19.776q1.056 0 1.824.768t.768 1.824V90.44l15.168-19.008q1.44-1.632 3.552-1.632h23.136q.864 0 1.44.672.672.576.672 1.44 0 .768-.48 1.344L700.341 101zm77.626-24.384q0 14.688-9.792 21.696-9.696 7.008-25.92 7.008t-26.016-7.008q-9.696-7.008-9.696-21.888V97.736q0-9.792 4.608-16.224 4.704-6.528 12.768-9.6t18.336-3.072 18.24 3.072q8.064 3.072 12.768 9.504t4.704 16.128zm-45.504 1.824q0 3.936 2.592 6.048 2.688 2.112 7.2 2.112t7.104-2.112q2.688-2.208 2.688-6.144V95.816q0-3.936-2.688-6.048-2.592-2.208-7.104-2.208t-7.2 2.112q-2.592 2.112-2.592 6.048zM310.768 188.8q1.056 0 1.824.768t.768 1.824v62.016q0 1.056-.768 1.824t-1.824.768h-19.776q-1.056 0-1.824-.768t-.768-1.824V232.96h-19.2v20.448q0 1.056-.768 1.824t-1.824.768h-19.776a2.68 2.68 0 0 1-1.824-.672q-.768-.768-.768-1.92v-62.016q0-1.056.768-1.824t1.824-.768h19.776q1.056 0 1.824.768t.768 1.824v19.68h19.2v-19.68q0-1.056.768-1.824t1.824-.768zm49.595 68.16q-16.128 0-25.632-7.008-9.408-7.008-9.408-21.888v-36.672q0-1.056.768-1.824t1.824-.768h20.064q1.056 0 1.824.768t.768 1.824V229.6q0 3.936 2.592 6.048 2.688 2.112 7.2 2.112t7.104-2.112q2.688-2.112 2.688-6.048v-38.208q0-1.056.768-1.824t1.824-.768h20.064q1.056 0 1.824.768t.768 1.824v36.672q0 14.88-9.504 21.888-9.408 7.008-25.536 7.008m94.618-20.64h17.376q1.056 0 1.824.768t.768 1.824v14.496q0 1.056-.768 1.824t-1.824.768h-60.864q-1.056 0-1.824-.768t-.768-1.824v-14.496q0-1.056.768-1.824t1.824-.768h17.568v-27.84h-17.568q-1.056 0-1.824-.768t-.768-1.824v-14.496q0-1.056.768-1.824t1.824-.768h60.864q1.056 0 1.824.768t.768 1.824v14.496q0 1.056-.768 1.824t-1.824.768h-17.376zm101.435-8.256q0 14.592-9.6 21.792-9.6 7.104-25.632 7.104-11.52 0-19.68-3.648-8.064-3.744-12.192-9.408-4.032-5.664-4.032-11.424 0-.864.575-1.44.673-.672 1.537-.672h21.696q.864 0 1.44.576.672.576.96 1.536 1.824 5.76 9.216 5.76 4.512 0 7.104-2.112 2.688-2.112 2.688-6.048v-21.6h-35.04q-1.056 0-1.824-.768t-.768-1.824v-14.496q0-1.056.768-1.824t1.824-.768h58.368q1.056 0 1.824.768t.768 1.824zm34.81 24.672q-1.248 3.264-4.32 3.264h-18.144a2.3 2.3 0 0 1-1.536-.576 2.3 2.3 0 0 1-.576-1.536l.096-.576 20.928-61.344q.384-1.248 1.44-2.208t2.88-.96h26.688q1.824 0 2.88.96t1.44 2.208l20.928 61.344.096.576q0 .864-.672 1.536-.576.576-1.44.576H623.77q-3.072 0-4.32-3.264l-2.4-6.72h-23.424zm14.112-45.408-6.816 19.968h13.632zM719.733 188.8q1.056 0 1.824.768t.768 1.824v15.456q0 1.056-.768 1.824t-1.824.768h-20.64v43.968q0 1.056-.768 1.824T696.5 256h-19.775q-1.056 0-1.824-.768t-.768-1.824V209.44h-20.64q-1.056 0-1.824-.768t-.768-1.824v-15.456q0-1.056.768-1.824t1.824-.768zm48.442 68.16q-16.128 0-25.632-7.008-9.408-7.008-9.408-21.888v-36.672q0-1.056.768-1.824t1.824-.768h20.064q1.056 0 1.824.768t.768 1.824V229.6q0 3.936 2.592 6.048 2.688 2.112 7.2 2.112t7.104-2.112q2.688-2.112 2.688-6.048v-38.208q0-1.056.768-1.824t1.824-.768h20.064q1.056 0 1.824.768t.768 1.824v36.672q0 14.88-9.504 21.888-9.408 7.008-25.536 7.008m121.211-4.32q.384.576.384 1.248 0 .864-.672 1.536-.576.576-1.44.576H862.89q-2.208 0-3.456-1.536l-16.704-20.64v19.584q0 1.056-.768 1.824t-1.824.768h-19.776q-1.056 0-1.824-.768t-.768-1.824v-62.016q0-1.056.768-1.824t1.824-.768h19.776q1.056 0 1.824.768t.768 1.824v18.048l15.168-19.008q1.44-1.632 3.552-1.632h23.136q.864 0 1.44.672.672.576.672 1.44 0 .768-.48 1.344L863.466 220zm47.194-39.456q10.56 1.152 16.896 3.744 6.432 2.592 9.312 6.816t2.88 10.56q0 6.912-4.512 12.096-4.416 5.088-12.288 7.872-7.872 2.688-17.952 2.688-11.232 0-19.008-2.784t-11.616-7.392q-3.84-4.704-3.84-10.272 0-.96.576-1.536.672-.576 1.632-.576h19.68q2.016 0 3.264 1.248 1.632 1.536 3.648 2.112 2.016.48 5.664.48 9.12 0 9.12-2.784 0-1.152-1.248-1.92-1.152-.864-4.224-1.44-2.976-.672-8.832-1.344-13.152-1.536-20.16-6.528-7.008-5.088-7.008-14.304 0-6.528 3.936-11.52t11.136-7.776q7.296-2.784 16.896-2.784 9.984 0 17.472 3.168 7.488 3.072 11.424 7.68t3.936 9.024q0 .96-.672 1.536-.576.576-1.632.576h-20.64q-1.632 0-2.976-1.152a8.2 8.2 0 0 0-2.496-1.536q-1.44-.576-4.416-.576-6.432 0-6.432 2.688 0 1.44 2.496 2.304 2.496.768 9.984 1.632m89.34 23.136h17.37q1.065 0 1.83.768c.51.512.77 1.12.77 1.824v14.496c0 .704-.26 1.312-.77 1.824q-.765.768-1.83.768h-60.859q-1.056 0-1.824-.768t-.768-1.824v-14.496q0-1.056.768-1.824t1.824-.768h17.568v-27.84h-17.568q-1.056 0-1.824-.768t-.768-1.824v-14.496q0-1.056.768-1.824t1.824-.768h60.859q1.065 0 1.83.768c.51.512.77 1.12.77 1.824v14.496c0 .704-.26 1.312-.77 1.824q-.765.768-1.83.768h-17.37z"/><g filter="url(#a)"><mask id="b" width="204" height="219" x="17" y="52" fill="#000" maskUnits="userSpaceOnUse"><path fill="#fff" d="M17 52h204v219H17z"/><path d="M123.48 62.2q32.48 0 51.8 8.96 19.6 8.68 27.44 20.72t7.84 22.96q0 10.08-4.2 18.48-4.2 8.12-10.08 14-5.6 5.6-15.4 14.28-12.6 10.08-17.64 17.08-3.64 5.04-5.32 6.72-1.4 1.4-4.76 1.4H87.64q-1.96 0-3.64-1.4-1.68-1.68-1.68-3.64 0-1.4.28-2.24 3.08-9.52 10.64-17.08 7.84-7.56 19.88-15.96 9.24-6.72 13.44-10.64 4.2-4.2 4.2-8.4t-2.8-7.28-9.52-3.08q-7.28 0-10.36 2.52-2.8 2.24-5.04 7-1.96 3.92-4.2 5.88-1.96 1.96-6.72 1.96H34.44q-3.08 0-5.04-2.52t-1.96-5.88v-.28q0-15.12 10.36-29.68 10.36-14.84 31.92-24.36 21.84-9.52 53.76-9.52m25.2 136.36q3.08 0 5.32 2.24t2.24 5.32v47.32q0 3.08-2.24 5.32t-5.32 2.24H91.84q-3.08 0-5.32-2.24t-2.24-5.32v-47.32q0-3.08 2.24-5.32t5.32-2.24z"/></mask><path fill="#0C2D70" d="m175.28 71.16-4.207 9.072.078.036.08.035zm31.08 62.16 8.882 4.594.032-.061.03-.061zm-10.08 14-7.071-7.071zm-15.4 14.28 6.247 7.809.196-.157.187-.166zm-17.64 17.08 8.107 5.855.004-.006.004-.006zm-5.32 6.72-7.071-7.071zm-73.92 0-7.071 7.071.32.321.35.29zm-1.4-5.88 9.487 3.162.014-.042.013-.042zm10.64-17.08-6.941-7.198-.066.063-.064.064zm19.88-15.96 5.722 8.201.08-.056.08-.058zm13.44-10.64 6.823 7.311.126-.118.122-.122zm1.4-15.68 7.399-6.727zm-19.88-.56 6.247 7.809.043-.035.042-.034zm-5.04 7 8.944 4.472.054-.106.05-.108zm-4.2 5.88-6.585-7.526-.25.219-.236.236zm-69.44-.56 7.894-6.139zm8.4-35.84 8.148 5.798.026-.037.026-.037zm31.92-24.36-3.996-9.167-.022.01-.021.01zM154 200.8l-7.071 7.071zm0 57.96-7.071-7.071zM86.52 200.8l7.071 7.071zm36.96-138.6v10c20.891 0 36.54 2.906 47.593 8.032l4.207-9.072 4.207-9.072c-14.707-6.82-33.591-9.888-56.007-9.888zm51.8 8.96-4.049 9.144c12.113 5.364 19.339 11.242 23.109 17.033l8.38-5.457 8.38-5.457c-6.683-10.263-17.751-18.198-31.771-24.406zm27.44 20.72-8.38 5.457c4.497 6.906 6.22 12.685 6.22 17.503h20c0-9.742-3.504-19.27-9.46-28.417zm7.84 22.96h-10c0 5.284-1.089 9.897-3.144 14.008l8.944 4.472 8.944 4.472c3.545-7.089 5.256-14.796 5.256-22.952zm-4.2 18.48-8.882-4.594c-2.374 4.589-5.145 8.399-8.269 11.523l7.071 7.071 7.071 7.071c4.716-4.716 8.665-10.24 11.891-16.477zm-10.08 14-7.071-7.071c-3.529 3.529-8.493 8.138-14.959 13.865l6.63 7.486 6.63 7.486c6.601-5.847 11.903-10.757 15.841-14.695zm-15.4 14.28-6.247-7.809c-8.607 6.886-15.341 13.258-19.508 19.046l8.115 5.843 8.115 5.843c2.553-3.545 7.579-8.56 15.772-15.114zm-17.64 17.08-8.107-5.855c-2.457 3.403-3.804 5.024-4.284 5.504l7.071 7.071 7.071 7.071c1.76-1.76 3.96-4.619 6.356-7.936zm-5.32 6.72-7.071-7.071c.979-.979 1.947-1.351 2.359-1.473.382-.112.431-.056-.048-.056v20c3.158 0 8.076-.574 11.831-4.329zm-4.76 1.4v-10H87.64v20h65.52zm-65.52 0v-10c.568 0 1.155.107 1.7.317.53.204.882.451 1.062.601L84 185.4l-6.402 7.682c2.696 2.246 6.123 3.718 10.042 3.718zM84 185.4l7.071-7.071c.123.123.452.488.749 1.13.312.677.5 1.474.5 2.301h-20c0 4.504 2.038 8.14 4.609 10.711zm-1.68-3.64h10c0-.146.008-.142-.007-.02a5 5 0 0 1-.226.942L82.6 179.52l-9.487-3.162c-.665 1.995-.793 3.943-.793 5.402zm.28-2.24 9.514 3.078c1.534-4.739 4.197-9.087 8.197-13.087l-7.071-7.071-7.071-7.071c-6.08 6.08-10.51 13.118-13.083 21.073zm10.64-17.08 6.941 7.198c4.743-4.573 10.928-9.562 18.661-14.957l-5.722-8.201-5.722-8.201c-8.32 5.805-15.389 11.456-21.1 16.963zm19.88-15.96 5.882 8.087c6.234-4.534 11.119-8.371 14.381-11.416l-6.823-7.311-6.823-7.311c-2.338 2.182-6.413 5.438-12.499 9.864zm13.44-10.64 7.071 7.071c3.89-3.89 7.129-9.083 7.129-15.471h-20c0-.328.094-.449.006-.272-.112.223-.445.769-1.277 1.601zm4.2-8.4h10c0-5.263-1.844-10.094-5.401-14.007l-7.399 6.727-7.399 6.727c.084.093.126.155.144.183s.021.039.022.04.006.017.014.058c.007.042.019.129.019.272zm-2.8-7.28 7.399-6.727c-4.657-5.123-11.306-6.353-16.919-6.353v20c1.529 0 2.344.182 2.662.284.263.085-.086.024-.541-.477zm-9.52-3.08v-10c-5.473 0-11.879.842-16.692 4.78l6.332 7.74 6.332 7.74c-.455.372-.581.267.162.087.729-.178 1.968-.347 3.866-.347zm-10.36 2.52-6.247-7.809c-3.484 2.788-5.978 6.591-7.841 10.551l9.048 4.258 9.048 4.258c1.123-2.387 1.99-3.25 2.239-3.449zm-5.04 7-8.944-4.472c-.976 1.952-1.672 2.679-1.841 2.826l6.585 7.526 6.585 7.526c2.818-2.466 4.922-5.659 6.559-8.934zm-4.2 5.88-7.071-7.071c.808-.808 1.533-1.036 1.611-1.059.043-.012-.03.013-.253.04-.221.026-.551.05-1.007.05v20c4.05 0 9.646-.744 13.791-4.889zm-6.72 1.96v-10H34.44v20h57.68zm-57.68 0v-10c.379 0 .998.088 1.672.426.663.331 1.04.733 1.181.915L29.4 131.92l-7.893 6.139c3.12 4.013 7.665 6.381 12.933 6.381zm-5.04-2.52 7.894-6.139a1 1 0 0 1 .053.085 1 1 0 0 1 .097.264c.001.01-.004-.017-.004-.09h-20c0 4.339 1.32 8.488 4.066 12.019zm-1.96-5.88h10v-.28h-20v.28zm0-.28h10c0-7.645 2.581-15.553 8.508-23.882L37.8 96.08l-8.148-5.798c-7.886 11.084-12.212 22.963-12.212 35.478zM37.8 96.08l8.2 5.724c5.587-8.004 14.565-15.11 27.76-20.936l-4.04-9.148-4.04-9.148c-15.551 6.867-27.854 16-36.08 27.784zm31.92-24.36 3.996 9.167c12.949-5.644 29.417-8.687 49.764-8.687v-20c-22.213 0-41.585 3.304-57.756 10.353zm78.96 126.84v10c-.215 0-.588-.046-1.011-.224a2.4 2.4 0 0 1-.74-.465L154 200.8l7.071-7.071c-3.309-3.309-7.602-5.169-12.391-5.169zm5.32 2.24-7.071 7.071a2.4 2.4 0 0 1-.465-.74 2.7 2.7 0 0 1-.224-1.011h20c0-4.789-1.86-9.082-5.169-12.391zm2.24 5.32h-10v47.32h20v-47.32zm0 47.32h-10c0-.215.046-.588.224-1.011.175-.417.386-.662.465-.74L154 258.76l7.071 7.071c3.309-3.309 5.169-7.602 5.169-12.391zm-2.24 5.32-7.071-7.071c.078-.079.323-.29.74-.465a2.7 2.7 0 0 1 1.011-.224v20c4.789 0 9.082-1.86 12.391-5.169zm-5.32 2.24v-10H91.84v20h56.84zm-56.84 0v-10c.215 0 .588.046 1.01.224.418.175.663.386.741.465l-7.071 7.071-7.071 7.071C82.758 269.14 87.05 271 91.84 271zm-5.32-2.24 7.071-7.071c.079.078.29.323.465.74.178.423.224.796.224 1.011h-20c0 4.789 1.86 9.082 5.169 12.391zm-2.24-5.32h10v-47.32h-20v47.32zm0-47.32h10c0 .215-.046.588-.224 1.011a2.4 2.4 0 0 1-.465.74L86.52 200.8l-7.071-7.071c-3.309 3.309-5.169 7.602-5.169 12.391zm2.24-5.32 7.071 7.071c-.078.079-.323.29-.74.465a2.7 2.7 0 0 1-1.011.224v-20c-4.789 0-9.082 1.86-12.391 5.169zm5.32-2.24v10h56.84v-20H91.84z" mask="url(#b)"/></g><defs><filter id="a" width="211.12" height="226.8" x="13.44" y="52.2" color-interpolation-filters="sRGB" filterUnits="userSpaceOnUse"><feFlood flood-opacity="0" result="BackgroundImageFix"/><feColorMatrix in="SourceAlpha" result="hardAlpha" values="0 0 0 0 0 0 0 0 0 0 0 0 0 0 0 0 0 0 127 0"/><feOffset dy="4"/><feGaussianBlur stdDeviation="2"/><feComposite in2="hardAlpha" operator="out"/><feColorMatrix values="0 0 0 0 0 0 0 0 0 0 0 0 0 0 0 0 0 0 0.25 0"/><feBlend in2="BackgroundImageFix" result="effect1_dropShadow_4_49"/><feBlend in="SourceGraphic" in2="effect1_dropShadow_4_49" result="shape"/></filter></defs></svg>