<svg xmlns="http://www.w3.org/2000/svg" width="184" height="199" fill="none"><path fill="#0C2D70" d="M96.48.2q32.48 0 51.8 8.96 19.6 8.68 27.44 20.72t7.84 22.96q0 10.08-4.2 18.48-4.2 8.12-10.08 14-5.6 5.6-15.4 14.28-12.6 10.08-17.64 17.08-3.64 5.04-5.32 6.72-1.4 1.4-4.76 1.4H60.64q-1.96 0-3.64-1.4-1.68-1.68-1.68-3.64 0-1.4.28-2.24 3.08-9.52 10.64-17.08 7.84-7.56 19.88-15.96 9.24-6.72 13.44-10.64 4.2-4.2 4.2-8.4t-2.8-7.28-9.52-3.08q-7.28 0-10.36 2.52-2.8 2.24-5.04 7-1.96 3.92-4.2 5.88-1.96 1.96-6.72 1.96H7.44q-3.08 0-5.04-2.52T.44 64.04v-.28q0-15.12 10.36-29.68Q21.16 19.24 42.72 9.72 64.56.2 96.48.2m25.2 136.36q3.08 0 5.32 2.24t2.24 5.32v47.32q0 3.08-2.24 5.32t-5.32 2.24H64.84q-3.08 0-5.32-2.24t-2.24-5.32v-47.32q0-3.08 2.24-5.32t5.32-2.24z"/></svg>